<?xml version="1.0" encoding="UTF-8"?><svg id="Layer_1" xmlns="http://www.w3.org/2000/svg" viewBox="0 0 1818.18 388.81"><defs><style>.cls-1{fill:#2e3192;}</style></defs><path class="cls-1" d="M130.82,243.4L0,8.34h126.65l62.02,137.07L253.29,8.34h125.61l-133.42,235.05,76.05,137.07h-114.66l-76.05-137.07Z"/><path class="cls-1" d="M681,16.34v61.14h-204.31v81.67h182.42v58.01h-182.42v91.05h209.52v64.26h-282.12V16.34h276.91M689,8.34h-292.91v372.13h298.12v-80.26h-209.52v-75.05h182.42v-74.01h-182.42v-65.67h204.31V8.34h0Z"/><path class="cls-1" d="M852.65,8c41.02,0,73.43,9.86,96.32,29.3,21.9,18.6,34.63,45.76,37.9,80.82h-71.02c-1.5-9.45-4.27-21.7-12.53-32.43-11.65-15.14-30.98-22.82-57.44-22.82-8.68,0-25.33,1.13-39.22,8.73-14.36,7.86-21.95,20.4-21.95,36.27,0,24.19,16.83,32.28,35.01,37.41h.03s.03.02.03.02l101.09,27.62c52.82,14.57,79.6,45.47,79.6,91.84,0,33.35-11.23,61.35-32.48,80.97-25.21,23.28-63.85,35.08-114.84,35.08-47.01,0-83.7-10.38-109.05-30.86-13.12-10.6-23.41-24.14-30.6-40.25-6.65-14.92-10.8-32.39-12.38-52.04h72.77c1.06,10.44,3.61,25.67,12.9,39.02,13.5,19.41,36.88,29.25,69.49,29.25,24.37,0,41.96-4.27,53.77-13.05,11.82-8.79,17.82-22.18,17.82-39.78,0-28.32-27.1-36.79-48.87-43.6l-.1-.03-.1-.03-84.43-23.97-.06-.02-.06-.02c-12.74-3.42-31.59-9.44-48.2-22.26-21.15-16.32-31.87-38.85-31.87-66.96,0-31.39,12.6-58.19,36.45-77.5,24.82-20.1,60.1-30.73,102-30.73M852.65,0c-90.17,0-146.45,47.95-146.45,116.22,0,71.92,64.63,91.21,86,96.94l84.43,23.97c25.02,7.82,43.26,15.11,43.26,35.96,0,29.19-17.72,44.82-63.59,44.82-71.92,0-73.49-50.03-75.05-68.28h-88.6c4.17,98.51,66.19,139.16,160.53,139.16,113.62,0,155.31-57.85,155.31-124.04,0-58.89-40.13-87.04-85.48-99.55l-101.11-27.62c-20.33-5.73-29.19-13.03-29.19-29.71,0-28.67,29.71-37,53.16-37,57.33,0,60.46,37.52,63.06,55.25h86.52C991.29,41.17,937.08,0,852.65,0h0Z"/><path class="cls-1" d="M1191.94,8c38.82,0,77.59,13.38,106.37,36.72,27.83,22.57,44.1,52.46,46.4,84.88h-71.79c-4.73-19.2-13.59-34.43-26.41-45.33-14.24-12.12-32.6-18.26-54.57-18.26-26.75,0-51.47,10.38-69.61,29.23-10.43,10.84-18.55,24.33-24.12,40.09-6.05,17.11-9.12,36.98-9.12,59.08s3.05,41.89,9.06,59.05c5.49,15.68,13.45,29.16,23.66,40.04,17.47,18.62,41.7,29.3,66.49,29.3,29.36,0,53.15-11.52,68.78-33.3,13.28-18.5,17.11-38.95,18.11-51.65h72.68c-3.25,53.66-39.35,142.96-159.57,142.96-24.09,0-46.94-4.42-67.9-13.13-20.68-8.59-38.96-21.12-54.33-37.23-15.66-16.42-27.87-36.12-36.29-58.57-8.82-23.51-13.29-49.58-13.29-77.48s4.47-54.03,13.28-77.47c8.45-22.48,20.74-42.18,36.53-58.54,15.58-16.13,34.2-28.66,55.35-37.24,21.53-8.73,45.18-13.15,70.29-13.15M1191.94,0c-105.8,0-183.46,76.09-183.46,194.4s78.18,194.4,179.81,194.4c129.77,0,167.82-100.59,167.82-158.96h-88.6c0,33.36-18.76,84.95-79.22,84.95-40.13,0-91.21-31.27-91.21-120.39s51.08-120.39,94.86-120.39c40.13,0,66.71,22.41,74.53,63.59h86.52c0-80.79-78.7-137.59-161.05-137.59h0Z"/><path class="cls-1" d="M1543.15,16.34l134.17,356.13h-77.6l-26.8-77.48-1.86-5.38h-137l-1.86,5.38-26.8,77.48h-74.45L1465.61,16.34h77.54M1451.31,237.84h103.96l-3.73-10.64-39.61-113.1-1.88-5.36h-12.34l-1.9,5.29-40.65,113.1-3.85,10.71M1548.69,8.34h-88.6l-140.72,372.13h91.73l28.67-82.87h125.61l28.67,82.87h94.86L1548.69,8.34h0ZM1462.69,229.84l40.65-113.1h1.04l39.61,113.1h-81.31Z"/><path class="cls-1" d="M1670.93,277.27h108.41l38.84,103.19h-108.41l-38.84-103.19Z"/></svg>